<?xml version="1.0" encoding="utf-8"?>
<!-- Generator: Adobe Illustrator 16.0.0, SVG Export Plug-In . SVG Version: 6.00 Build 0)  -->
<!DOCTYPE svg PUBLIC "-//W3C//DTD SVG 1.1//EN" "http://www.w3.org/Graphics/SVG/1.1/DTD/svg11.dtd">
<svg version="1.1" xmlns="http://www.w3.org/2000/svg" xmlns:xlink="http://www.w3.org/1999/xlink" x="0px" y="0px" width="125px"
	 height="125px" viewBox="0 0 125 125" enable-background="new 0 0 125 125" xml:space="preserve">
<g id="Layer_1">
</g>
<g id="Layer_2">
	<rect x="60.258" y="45.252" fill="#02B8AA" width="23.703" height="2"/>
	<rect x="60.258" y="49.088" fill="#02B8AA" width="23.703" height="2"/>
	<rect x="60.258" y="52.923" fill="#02B8AA" width="23.703" height="2"/>
	<path fill="#02B8AA" d="M84.961,69.143l-6.957-6.96H53.109V37.993h38v24.189h-6.148V69.143z M55.109,60.183h23.723l4.129,4.13
		v-4.13h6.148V39.993h-34V60.183z"/>
	<polygon fill="#FFFFFF" points="70.891,58.272 70.891,80.462 46.582,80.462 41.039,86.007 41.039,80.462 34.891,80.462 
		34.891,58.272 	"/>
	<path fill="#02B8AA" d="M40.039,88.422v-6.96h-6.148V57.272h38v24.189H46.996L40.039,88.422z M35.891,79.462h6.148v4.13l4.129-4.13
		h23.723V59.272h-34V79.462z"/>
	<rect x="41.039" y="64.532" fill="#02B8AA" width="23.703" height="2"/>
	<rect x="41.039" y="68.367" fill="#02B8AA" width="23.703" height="2"/>
	<rect x="41.039" y="72.203" fill="#02B8AA" width="23.703" height="2"/>
</g>
</svg>
