<?xml version="1.0" encoding="utf-8"?>
<!-- Generator: Adobe Illustrator 16.0.0, SVG Export Plug-In . SVG Version: 6.00 Build 0)  -->
<!DOCTYPE svg PUBLIC "-//W3C//DTD SVG 1.1//EN" "http://www.w3.org/Graphics/SVG/1.1/DTD/svg11.dtd">
<svg version="1.1" xmlns="http://www.w3.org/2000/svg" xmlns:xlink="http://www.w3.org/1999/xlink" x="0px" y="0px" width="125px"
	 height="125px" viewBox="0 0 125 125" enable-background="new 0 0 125 125" xml:space="preserve">
<g id="Layer_1">
</g>
<g id="Layer_2">
	<rect x="59.313" y="37.692" fill="#02B8AA" width="33.684" height="2.842"/>
	<rect x="59.313" y="43.143" fill="#02B8AA" width="33.684" height="2.842"/>
	<rect x="59.313" y="48.593" fill="#02B8AA" width="33.684" height="2.842"/>
	<path fill="#02B8AA" d="M94.418,71.642l-9.886-9.891H49.155V27.377h54v34.374h-8.737V71.642z M51.998,58.909h33.711l5.867,5.868
		v-5.868h8.737v-28.69H51.998V58.909z"/>
	<polygon fill="#FFFFFF" points="74.424,56.194 74.424,87.727 39.88,87.727 32.003,95.606 32.003,87.727 23.266,87.727 
		23.266,56.194 	"/>
	<path fill="#02B8AA" d="M30.582,99.038v-9.891h-8.737V54.773h54v34.374H40.468L30.582,99.038z M24.687,86.306h8.737v5.869
		l5.867-5.869h33.711v-28.69H24.687V86.306z"/>
	<rect x="32.003" y="65.09" fill="#02B8AA" width="33.684" height="2.842"/>
	<rect x="32.003" y="70.54" fill="#02B8AA" width="33.684" height="2.842"/>
	<rect x="32.003" y="75.99" fill="#02B8AA" width="33.684" height="2.843"/>
</g>
</svg>
