<?xml version="1.0" encoding="utf-8"?>
<!-- Generator: Adobe Illustrator 16.0.0, SVG Export Plug-In . SVG Version: 6.00 Build 0)  -->
<!DOCTYPE svg PUBLIC "-//W3C//DTD SVG 1.1//EN" "http://www.w3.org/Graphics/SVG/1.1/DTD/svg11.dtd">
<svg version="1.1" xmlns="http://www.w3.org/2000/svg" xmlns:xlink="http://www.w3.org/1999/xlink" x="0px" y="0px" width="125px"
	 height="125px" viewBox="0 0 125 125" enable-background="new 0 0 125 125" xml:space="preserve">
<g id="Layer_1">
</g>
<g id="Layer_2">
	<rect x="59.313" y="37.692" fill="#02B8AA" width="33.684" height="2.842"/>
	<rect x="59.313" y="43.143" fill="#02B8AA" width="33.684" height="2.842"/>
	<rect x="59.313" y="48.593" fill="#02B8AA" width="33.684" height="2.842"/>
	<g>
		<rect x="51.998" y="57.616" fill="none" width="21.004" height="1.293"/>
		<polygon fill="none" points="75.845,58.909 85.709,58.909 91.576,64.777 91.576,58.909 100.313,58.909 100.313,30.219 
			51.998,30.219 51.998,54.773 75.845,54.773 		"/>
		<polygon fill="none" points="49.155,57.616 24.687,57.616 24.687,86.306 33.424,86.306 33.424,92.175 39.291,86.306 
			73.002,86.306 73.002,61.751 49.155,61.751 		"/>
		<polygon fill="#02B8AA" points="51.998,57.616 49.155,57.616 49.155,61.751 73.002,61.751 73.002,58.909 51.998,58.909 		"/>
		<polygon fill="#02B8AA" points="49.155,27.377 49.155,54.773 51.998,54.773 51.998,30.219 100.313,30.219 100.313,58.909 
			91.576,58.909 91.576,64.777 85.709,58.909 75.845,58.909 75.845,61.751 84.532,61.751 94.418,71.642 94.418,61.751 
			103.155,61.751 103.155,27.377 		"/>
		<polygon fill="#02B8AA" points="73.002,86.306 39.291,86.306 33.424,92.175 33.424,86.306 24.687,86.306 24.687,57.616 
			49.155,57.616 49.155,54.773 21.845,54.773 21.845,89.147 30.582,89.147 30.582,99.038 40.468,89.147 75.845,89.147 
			75.845,61.751 73.002,61.751 		"/>
		<rect x="73.002" y="58.909" fill="#02B8AA" width="2.843" height="2.842"/>
		<rect x="49.155" y="54.773" fill="#02B8AA" width="2.843" height="2.842"/>
	</g>
	<rect x="32.003" y="65.09" fill="#02B8AA" width="33.684" height="2.842"/>
	<rect x="32.003" y="70.54" fill="#02B8AA" width="33.684" height="2.842"/>
	<rect x="32.003" y="75.99" fill="#02B8AA" width="33.684" height="2.843"/>
</g>
</svg>
