<?xml version="1.0" encoding="utf-8"?>
<!-- Generator: Adobe Illustrator 16.0.0, SVG Export Plug-In . SVG Version: 6.00 Build 0)  -->
<!DOCTYPE svg PUBLIC "-//W3C//DTD SVG 1.1//EN" "http://www.w3.org/Graphics/SVG/1.1/DTD/svg11.dtd">
<svg version="1.1" xmlns="http://www.w3.org/2000/svg" xmlns:xlink="http://www.w3.org/1999/xlink" x="0px" y="0px" width="125px"
	 height="125px" viewBox="0 0 125 125" enable-background="new 0 0 125 125" xml:space="preserve">
<g id="Layer_1">
</g>
<g id="Layer_2">
	<g>
		<g>
			<g>
				<g>
					<path fill="#02B8AA" d="M63.996,83.667h-2.861c0-3.371-2.744-6.114-6.116-6.114h-29.26V34.61h38.237V83.667z M28.621,74.691
						h26.397c2.361,0,4.512,0.914,6.116,2.409V37.472H28.621V74.691z"/>
				</g>
				<g>
					<polygon fill="#02B8AA" points="62.565,85.099 25.759,85.099 25.759,76.121 28.621,76.121 28.621,82.236 62.565,82.236 					
						"/>
				</g>
				<g>
					<polygon fill="#02B8AA" points="99.373,85.099 62.565,85.099 62.565,82.236 96.512,82.236 96.512,76.121 99.373,76.121 					
						"/>
				</g>
				<g>
					<path fill="#02B8AA" d="M63.996,83.667h-2.861V34.61h38.238v42.943H70.109C66.739,77.553,63.996,80.296,63.996,83.667z
						 M63.996,37.472v39.629c1.604-1.495,3.754-2.409,6.113-2.409h26.402v-37.22H63.996z"/>
				</g>
			</g>
			<g>
				<g>
					<g>
						<rect x="34.402" y="44.41" fill="#02B8AA" width="21.365" height="2.862"/>
					</g>
					<g>
						<rect x="34.402" y="49.897" fill="#02B8AA" width="21.365" height="2.862"/>
					</g>
					<g>
						<rect x="34.402" y="55.386" fill="#02B8AA" width="21.365" height="2.862"/>
					</g>
					<g>
						<rect x="34.402" y="60.874" fill="#02B8AA" width="21.365" height="2.861"/>
					</g>
					<g>
						<rect x="34.402" y="66.361" fill="#02B8AA" width="21.365" height="2.861"/>
					</g>
				</g>
				<g>
					<g>
						<rect x="69.362" y="44.41" fill="#02B8AA" width="21.364" height="2.862"/>
					</g>
					<g>
						<rect x="69.362" y="49.897" fill="#02B8AA" width="21.364" height="2.862"/>
					</g>
					<g>
						<rect x="69.362" y="55.386" fill="#02B8AA" width="21.364" height="2.862"/>
					</g>
					<g>
						<rect x="69.362" y="60.874" fill="#02B8AA" width="21.364" height="2.861"/>
					</g>
					<g>
						<rect x="69.362" y="66.361" fill="#02B8AA" width="21.364" height="2.861"/>
					</g>
				</g>
			</g>
		</g>
		<g>
			<polygon fill="#02B8AA" points="104.588,90.39 20.412,90.39 20.412,40.489 27.19,40.489 27.19,43.352 23.273,43.352 
				23.273,87.528 101.727,87.528 101.727,43.352 97.813,43.352 97.813,40.489 104.588,40.489 			"/>
		</g>
	</g>
</g>
</svg>
