<?xml version="1.0" encoding="utf-8"?>
<!-- Generator: Adobe Illustrator 16.0.0, SVG Export Plug-In . SVG Version: 6.00 Build 0)  -->
<!DOCTYPE svg PUBLIC "-//W3C//DTD SVG 1.1//EN" "http://www.w3.org/Graphics/SVG/1.1/DTD/svg11.dtd">
<svg version="1.1" xmlns="http://www.w3.org/2000/svg" xmlns:xlink="http://www.w3.org/1999/xlink" x="0px" y="0px" width="125px"
	 height="125px" viewBox="0 0 125 125" enable-background="new 0 0 125 125" xml:space="preserve">
<g id="Layer_1">
</g>
<g id="Layer_2">
	<g>
		<g>
			<g>
				<g>
					<g>
						<path fill="#02B8AA" d="M61.214,24.281c0-0.708,0.576-1.285,1.285-1.285c0.708,0,1.285,0.576,1.285,1.285v4.978
							c0,0.711-0.576,1.287-1.285,1.287c-0.709,0-1.285-0.576-1.285-1.287V24.281z"/>
					</g>
					<g>
						<path fill="#02B8AA" d="M46.333,42.968c2.1-2.098,4.624-3.799,7.423-4.959c2.701-1.12,5.652-1.738,8.737-1.738
							c3.088,0,6.043,0.618,8.742,1.738v0.003c2.805,1.161,5.323,2.859,7.422,4.957c2.085,2.083,3.776,4.587,4.939,7.373
							l0.024,0.051c1.121,2.698,1.736,5.652,1.736,8.741c0,2.465-0.396,4.854-1.124,7.085c-0.751,2.313-1.867,4.47-3.273,6.389
							c-2.419,3.308-4.352,5.426-5.851,7.068l-0.003-0.002l-0.003,0.002c-2.655,2.907-3.852,4.218-3.852,8.502
							c0,0.708-0.579,1.285-1.286,1.285h-7.524h-7.485h-0.033c-0.709,0-1.284-0.577-1.284-1.285c0-4.325-1.172-5.62-3.848-8.579
							c-1.484-1.646-3.398-3.765-5.757-6.991c-1.406-1.919-2.521-4.073-3.273-6.386c-0.73-2.233-1.124-4.62-1.124-7.088
							C39.638,52.821,42.199,47.103,46.333,42.968L46.333,42.968z M43.208,65.434c0.667,2.053,1.656,3.965,2.898,5.664
							c2.31,3.16,4.154,5.2,5.589,6.787c2.872,3.177,4.267,4.726,4.486,9.009h6.266h6.267c0.222-4.258,1.644-5.82,4.502-8.942
							l-0.003-0.003c1.469-1.613,3.36-3.681,5.68-6.855c1.242-1.701,2.23-3.613,2.901-5.666c0.644-1.974,0.994-4.095,0.994-6.294
							c0-2.755-0.548-5.377-1.533-7.758l-0.028-0.069c-1.023-2.445-2.525-4.663-4.385-6.519c-1.875-1.878-4.107-3.387-6.581-4.41
							l-0.006-0.003v0.003c-2.379-0.988-5.002-1.534-7.756-1.534c-2.757,0-5.38,0.546-7.763,1.534
							c-2.473,1.023-4.708,2.531-6.584,4.41c-3.67,3.671-5.942,8.743-5.942,14.346C42.209,61.336,42.559,63.453,43.208,65.434z"/>
					</g>
					<g>
						<path fill="#02B8AA" d="M44.246,29.513c-0.351-0.613-0.143-1.399,0.47-1.749c0.613-0.35,1.398-0.139,1.75,0.472l2.489,4.312
							c0.35,0.613,0.139,1.397-0.471,1.749c-0.613,0.35-1.397,0.137-1.749-0.471L44.246,29.513z"/>
					</g>
					<g>
						<path fill="#02B8AA" d="M78.531,28.237c0.352-0.611,1.135-0.82,1.749-0.47c0.611,0.35,0.82,1.136,0.471,1.745l-2.489,4.313
							c-0.352,0.608-1.135,0.821-1.745,0.471c-0.612-0.352-0.822-1.136-0.472-1.746L78.531,28.237z"/>
					</g>
					<g>
						<path fill="#02B8AA" d="M91.554,40.317c0.613-0.35,1.398-0.142,1.75,0.472c0.35,0.611,0.138,1.395-0.475,1.745l-4.312,2.49
							c-0.61,0.35-1.396,0.139-1.747-0.472c-0.35-0.612-0.139-1.396,0.471-1.748L91.554,40.317z"/>
					</g>
					<g>
						<path fill="#02B8AA" d="M32.168,42.534c-0.611-0.35-0.822-1.137-0.47-1.748c0.35-0.61,1.135-0.822,1.747-0.472l4.312,2.49
							c0.611,0.352,0.822,1.136,0.472,1.748c-0.352,0.611-1.135,0.822-1.747,0.472L32.168,42.534z"/>
					</g>
					<g>
						<path fill="#02B8AA" d="M75.848,64.211c0.369-0.875,0.659-1.801,0.849-2.755c0.185-0.916,0.283-1.88,0.283-2.885
							c0-0.708,0.576-1.285,1.285-1.285c0.706,0,1.284,0.574,1.284,1.285c0,1.14-0.12,2.274-0.342,3.387
							c-0.224,1.124-0.564,2.212-1.002,3.246c-0.272,0.65-1.024,0.954-1.676,0.682C75.88,65.613,75.575,64.862,75.848,64.211
							L75.848,64.211z M74.518,50.481l-0.002,0.002c-0.518-0.769-1.117-1.493-1.778-2.154c-0.67-0.67-1.392-1.269-2.15-1.778h-0.003
							l0,0c-0.777-0.524-1.597-0.972-2.446-1.33c-0.872-0.371-1.795-0.661-2.75-0.851c-0.914-0.182-1.883-0.282-2.889-0.282
							c-0.709,0-1.285-0.575-1.285-1.285c0-0.709,0.576-1.285,1.285-1.285c1.137,0,2.279,0.117,3.388,0.343
							c1.127,0.224,2.215,0.564,3.245,1.001c1.027,0.433,2,0.961,2.888,1.561v0.003c0.927,0.622,1.776,1.324,2.537,2.085
							c0.769,0.768,1.471,1.619,2.089,2.533l-0.005,0.003l0.005,0.003c0.602,0.896,1.129,1.863,1.56,2.883
							c0.272,0.651-0.032,1.403-0.682,1.675c-0.651,0.273-1.403-0.032-1.676-0.683C75.484,52.075,75.04,51.255,74.518,50.481z"/>
					</g>
				</g>
				<g>
					<rect x="54.797" y="91.461" fill="#02B8AA" width="15.406" height="2.963"/>
				</g>
				<g>
					<rect x="54.797" y="95.749" fill="#02B8AA" width="15.406" height="2.963"/>
				</g>
				<g>
					<rect x="57.484" y="100.041" fill="#02B8AA" width="10.033" height="2.963"/>
				</g>
			</g>
		</g>
	</g>
</g>
</svg>
