<?xml version="1.0" encoding="utf-8"?>
<!-- Generator: Adobe Illustrator 16.0.0, SVG Export Plug-In . SVG Version: 6.00 Build 0)  -->
<!DOCTYPE svg PUBLIC "-//W3C//DTD SVG 1.1//EN" "http://www.w3.org/Graphics/SVG/1.1/DTD/svg11.dtd">
<svg version="1.1" xmlns="http://www.w3.org/2000/svg" xmlns:xlink="http://www.w3.org/1999/xlink" x="0px" y="0px" width="125px"
	 height="125px" viewBox="0 0 125 125" enable-background="new 0 0 125 125" xml:space="preserve">
<g id="Layer_1">
</g>
<g id="Layer_2">
	<g>
		<g>
			<g>
				<g>
					<g>
						<path fill="#02B8AA" d="M61.632,36.865c0-0.479,0.389-0.867,0.867-0.867s0.867,0.389,0.867,0.867v3.36
							c0,0.479-0.389,0.868-0.867,0.868s-0.867-0.389-0.867-0.868V36.865z"/>
					</g>
					<g>
						<path fill="#02B8AA" d="M51.587,49.479c1.417-1.416,3.121-2.564,5.011-3.348c1.823-0.756,3.815-1.173,5.897-1.173
							c2.084,0,4.08,0.417,5.901,1.173v0.002c1.894,0.783,3.593,1.93,5.01,3.346c1.407,1.406,2.549,3.097,3.334,4.977l0.017,0.034
							c0.756,1.821,1.172,3.815,1.172,5.9c0,1.664-0.268,3.276-0.759,4.782c-0.507,1.561-1.261,3.017-2.21,4.313
							c-1.632,2.232-2.937,3.662-3.949,4.771l-0.002-0.002l-0.002,0.002c-1.792,1.962-2.6,2.847-2.6,5.738
							c0,0.478-0.391,0.867-0.868,0.867h-5.078h-5.053h-0.022c-0.479,0-0.867-0.39-0.867-0.867c0-2.92-0.792-3.794-2.597-5.791
							c-1.002-1.111-2.294-2.541-3.886-4.719c-0.949-1.296-1.702-2.75-2.209-4.311c-0.493-1.508-0.759-3.118-0.759-4.784
							C47.068,56.129,48.797,52.27,51.587,49.479L51.587,49.479z M49.478,64.643c0.45,1.386,1.118,2.677,1.957,3.823
							c1.559,2.133,2.804,3.51,3.772,4.581c1.938,2.145,2.88,3.189,3.028,6.081h4.229h4.23c0.149-2.874,1.109-3.929,3.039-6.036
							l-0.002-0.002c0.991-1.089,2.268-2.484,3.834-4.627c0.838-1.148,1.505-2.439,1.958-3.825c0.435-1.332,0.671-2.764,0.671-4.248
							c0-1.859-0.37-3.63-1.035-5.236l-0.019-0.047c-0.691-1.65-1.705-3.147-2.96-4.4c-1.266-1.268-2.772-2.286-4.442-2.977
							l-0.004-0.002v0.002c-1.605-0.667-3.376-1.035-5.235-1.035c-1.861,0-3.632,0.368-5.24,1.035
							c-1.669,0.69-3.178,1.709-4.444,2.977c-2.478,2.479-4.011,5.901-4.011,9.684C48.804,61.877,49.04,63.306,49.478,64.643z"/>
					</g>
					<g>
						<path fill="#02B8AA" d="M50.179,40.396c-0.237-0.414-0.097-0.944,0.317-1.181c0.414-0.236,0.944-0.094,1.181,0.318l1.68,2.91
							c0.236,0.414,0.094,0.943-0.318,1.181c-0.414,0.236-0.943,0.093-1.181-0.318L50.179,40.396z"/>
					</g>
					<g>
						<path fill="#02B8AA" d="M73.321,39.535c0.237-0.412,0.766-0.554,1.181-0.317c0.412,0.236,0.554,0.767,0.317,1.178
							l-1.681,2.911c-0.237,0.411-0.766,0.555-1.178,0.318c-0.413-0.237-0.555-0.767-0.318-1.179L73.321,39.535z"/>
					</g>
					<g>
						<path fill="#02B8AA" d="M82.111,47.689c0.413-0.236,0.943-0.096,1.181,0.318c0.236,0.412,0.094,0.941-0.32,1.178l-2.91,1.681
							c-0.412,0.236-0.942,0.094-1.179-0.318c-0.236-0.413-0.094-0.942,0.317-1.18L82.111,47.689z"/>
					</g>
					<g>
						<path fill="#02B8AA" d="M42.026,49.186c-0.413-0.236-0.555-0.768-0.317-1.18c0.236-0.412,0.766-0.555,1.179-0.318l2.911,1.681
							c0.413,0.237,0.555,0.767,0.318,1.18c-0.237,0.412-0.767,0.555-1.18,0.318L42.026,49.186z"/>
					</g>
					<g>
						<path fill="#02B8AA" d="M71.51,63.817c0.249-0.591,0.444-1.216,0.572-1.859c0.125-0.618,0.191-1.27,0.191-1.947
							c0-0.478,0.389-0.867,0.867-0.867c0.477,0,0.867,0.388,0.867,0.867c0,0.77-0.081,1.535-0.23,2.286
							c-0.151,0.759-0.381,1.493-0.677,2.19c-0.184,0.439-0.691,0.645-1.131,0.461C71.531,64.764,71.325,64.257,71.51,63.817
							L71.51,63.817z M70.611,54.55l-0.001,0.002c-0.35-0.519-0.754-1.008-1.2-1.454c-0.452-0.452-0.939-0.856-1.451-1.2h-0.002l0,0
							c-0.525-0.354-1.078-0.656-1.651-0.897c-0.589-0.25-1.212-0.446-1.856-0.574c-0.617-0.123-1.271-0.19-1.95-0.19
							c-0.479,0-0.867-0.388-0.867-0.867c0-0.479,0.389-0.867,0.867-0.867c0.768,0,1.538,0.079,2.287,0.231
							c0.761,0.151,1.495,0.381,2.19,0.676c0.693,0.292,1.35,0.648,1.949,1.054v0.002c0.625,0.42,1.199,0.894,1.713,1.407
							c0.519,0.519,0.992,1.093,1.409,1.71l-0.003,0.002l0.003,0.002c0.406,0.605,0.763,1.258,1.053,1.946
							c0.185,0.439-0.021,0.947-0.46,1.131c-0.439,0.185-0.947-0.021-1.131-0.461C71.265,55.626,70.964,55.072,70.611,54.55z"/>
					</g>
				</g>
				<g>
					<rect x="57.301" y="82.211" fill="#02B8AA" width="10.398" height="2"/>
				</g>
				<g>
					<rect x="57.301" y="85.105" fill="#02B8AA" width="10.398" height="2"/>
				</g>
				<g>
					<rect x="59.114" y="88.002" fill="#02B8AA" width="6.771" height="2"/>
				</g>
			</g>
		</g>
	</g>
</g>
</svg>
