<?xml version="1.0" encoding="utf-8"?>
<!-- Generator: Adobe Illustrator 16.0.0, SVG Export Plug-In . SVG Version: 6.00 Build 0)  -->
<!DOCTYPE svg PUBLIC "-//W3C//DTD SVG 1.1//EN" "http://www.w3.org/Graphics/SVG/1.1/DTD/svg11.dtd">
<svg version="1.1" id="Layer_1" xmlns="http://www.w3.org/2000/svg" xmlns:xlink="http://www.w3.org/1999/xlink" x="0px" y="0px"
	 width="263.5px" height="30px" viewBox="0 0 263.5 30" enable-background="new 0 0 263.5 30" xml:space="preserve">
<g>
	<g enable-background="new    ">
		<path fill="#FFFFFF" d="M154.284,8.02V25h-1.068V10.528c0-0.208,0.013-0.428,0.036-0.66l-6.684,11.868
			c-0.112,0.208-0.272,0.312-0.48,0.312h-0.191c-0.209,0-0.369-0.104-0.48-0.312l-6.864-11.893c0.024,0.24,0.036,0.468,0.036,0.685
			V25h-1.08V8.02h0.852c0.113,0,0.201,0.013,0.265,0.036c0.063,0.024,0.128,0.089,0.192,0.192l6.852,11.808
			c0.12,0.225,0.225,0.465,0.313,0.721c0.047-0.128,0.1-0.254,0.156-0.378c0.055-0.124,0.115-0.242,0.18-0.354l6.66-11.796
			c0.063-0.104,0.129-0.168,0.197-0.192c0.068-0.023,0.158-0.036,0.27-0.036H154.284z"/>
		<path fill="#FFFFFF" d="M158.004,14.752c0.624-0.624,1.28-1.096,1.969-1.416c0.688-0.319,1.467-0.479,2.34-0.479
			c0.64,0,1.199,0.102,1.68,0.306s0.878,0.496,1.193,0.876c0.316,0.38,0.555,0.84,0.715,1.38s0.24,1.143,0.24,1.806V25h-0.457
			c-0.24,0-0.388-0.112-0.443-0.336l-0.168-1.536c-0.328,0.32-0.654,0.608-0.979,0.864s-0.662,0.472-1.014,0.647
			c-0.352,0.177-0.732,0.313-1.141,0.408c-0.407,0.096-0.855,0.145-1.344,0.145c-0.408,0-0.804-0.061-1.188-0.181
			c-0.385-0.12-0.727-0.304-1.026-0.552s-0.54-0.565-0.72-0.954c-0.18-0.388-0.27-0.854-0.27-1.397c0-0.505,0.144-0.973,0.432-1.404
			s0.74-0.808,1.355-1.128c0.616-0.32,1.406-0.576,2.371-0.769c0.963-0.191,2.121-0.304,3.473-0.336v-1.248
			c0-1.104-0.237-1.953-0.713-2.55c-0.477-0.596-1.183-0.894-2.119-0.894c-0.575,0-1.065,0.08-1.469,0.239
			c-0.404,0.16-0.746,0.337-1.026,0.528c-0.28,0.192-0.509,0.368-0.685,0.528s-0.324,0.24-0.443,0.24
			c-0.088,0-0.16-0.021-0.217-0.061c-0.056-0.04-0.104-0.092-0.144-0.156L158.004,14.752z M165.023,19.228
			c-1.135,0.041-2.113,0.131-2.934,0.271s-1.496,0.33-2.027,0.57c-0.533,0.239-0.926,0.525-1.183,0.857
			c-0.256,0.332-0.384,0.71-0.384,1.134c0,0.4,0.066,0.746,0.197,1.038c0.133,0.292,0.309,0.532,0.529,0.721
			c0.219,0.188,0.474,0.326,0.762,0.414c0.287,0.088,0.588,0.132,0.9,0.132c0.463,0,0.889-0.05,1.277-0.15
			c0.388-0.1,0.748-0.24,1.08-0.42s0.643-0.394,0.93-0.642c0.288-0.248,0.572-0.517,0.852-0.805V19.228z"/>
		<path fill="#FFFFFF" d="M171.048,15.94c0.185-0.488,0.394-0.923,0.63-1.303s0.508-0.702,0.816-0.966
			c0.308-0.264,0.651-0.466,1.031-0.605c0.381-0.141,0.803-0.21,1.267-0.21c0.247,0,0.491,0.021,0.731,0.065
			s0.452,0.122,0.637,0.234l-0.096,0.792c-0.041,0.128-0.117,0.191-0.229,0.191c-0.096,0-0.242-0.027-0.438-0.084
			c-0.197-0.056-0.455-0.084-0.774-0.084c-0.464,0-0.874,0.07-1.23,0.21c-0.356,0.141-0.676,0.351-0.96,0.63
			c-0.283,0.28-0.531,0.627-0.744,1.038c-0.212,0.412-0.406,0.887-0.582,1.423V25h-1.152V13.06h0.613
			c0.135,0,0.231,0.028,0.287,0.084c0.057,0.057,0.092,0.152,0.108,0.288L171.048,15.94z"/>
		<path fill="#FFFFFF" d="M179.592,7.54v10.644h0.552c0.112,0,0.218-0.016,0.318-0.048c0.1-0.031,0.21-0.107,0.329-0.228
			l4.789-4.548c0.08-0.097,0.168-0.17,0.264-0.223c0.096-0.052,0.216-0.078,0.359-0.078h1.009l-5.269,5.005
			c-0.144,0.168-0.3,0.3-0.468,0.396c0.128,0.064,0.237,0.138,0.33,0.222c0.092,0.084,0.183,0.183,0.271,0.294L187.607,25h-0.996
			c-0.111,0-0.214-0.018-0.306-0.054c-0.093-0.036-0.179-0.11-0.258-0.223l-5.017-5.376c-0.063-0.071-0.125-0.132-0.186-0.18
			s-0.122-0.086-0.186-0.114c-0.064-0.027-0.139-0.048-0.223-0.06s-0.186-0.019-0.306-0.019h-0.54V25h-1.152V7.54H179.592z"/>
		<path fill="#FFFFFF" d="M189.504,18.556v0.229c0,0.896,0.104,1.684,0.312,2.364c0.208,0.68,0.504,1.25,0.888,1.71
			c0.385,0.46,0.848,0.806,1.393,1.038c0.543,0.231,1.152,0.348,1.824,0.348c0.6,0,1.119-0.066,1.56-0.198s0.81-0.28,1.11-0.444
			c0.3-0.163,0.537-0.312,0.713-0.443c0.177-0.132,0.305-0.198,0.385-0.198c0.104,0,0.184,0.04,0.24,0.12l0.312,0.384
			c-0.192,0.24-0.446,0.464-0.762,0.672c-0.316,0.208-0.668,0.387-1.056,0.534c-0.389,0.148-0.805,0.267-1.248,0.354
			c-0.444,0.088-0.891,0.132-1.338,0.132c-0.816,0-1.561-0.143-2.232-0.426c-0.672-0.284-1.248-0.698-1.729-1.242
			c-0.479-0.544-0.85-1.21-1.109-1.998s-0.391-1.69-0.391-2.706c0-0.856,0.123-1.646,0.366-2.37
			c0.244-0.724,0.597-1.348,1.056-1.872c0.461-0.523,1.024-0.934,1.692-1.23c0.668-0.295,1.427-0.443,2.274-0.443
			c0.672,0,1.296,0.116,1.871,0.348c0.576,0.232,1.076,0.57,1.5,1.015c0.425,0.443,0.759,0.989,1.002,1.638
			c0.244,0.647,0.367,1.392,0.367,2.231c0,0.177-0.024,0.297-0.072,0.36c-0.049,0.064-0.129,0.096-0.24,0.096H189.504z
			 M197.472,17.824c0-0.641-0.091-1.214-0.271-1.723c-0.18-0.508-0.434-0.938-0.762-1.29c-0.328-0.352-0.719-0.621-1.17-0.81
			c-0.452-0.188-0.95-0.282-1.494-0.282c-0.616,0-1.168,0.097-1.656,0.288c-0.488,0.192-0.91,0.468-1.266,0.828
			s-0.643,0.792-0.857,1.296c-0.217,0.504-0.361,1.068-0.433,1.692H197.472z"/>
		<path fill="#FFFFFF" d="M204.84,25.192c-0.809,0-1.438-0.225-1.891-0.673c-0.451-0.447-0.678-1.14-0.678-2.075v-8.16h-1.716
			c-0.089,0-0.16-0.024-0.216-0.072c-0.057-0.048-0.084-0.116-0.084-0.204v-0.443l2.039-0.145l0.289-4.271
			c0.016-0.072,0.047-0.137,0.096-0.192c0.048-0.056,0.115-0.084,0.203-0.084h0.541v4.56h3.768v0.853h-3.768v8.1
			c0,0.328,0.041,0.61,0.125,0.847c0.084,0.235,0.201,0.43,0.349,0.581c0.147,0.152,0.321,0.265,0.522,0.337
			c0.199,0.071,0.416,0.107,0.647,0.107c0.288,0,0.536-0.042,0.744-0.126s0.388-0.176,0.54-0.276c0.152-0.1,0.275-0.191,0.372-0.275
			c0.096-0.084,0.172-0.126,0.228-0.126c0.064,0,0.128,0.04,0.192,0.12l0.312,0.504c-0.304,0.336-0.689,0.605-1.158,0.81
			C205.83,25.09,205.344,25.192,204.84,25.192z"/>
		<path fill="#FFFFFF" d="M210.899,15.208c0.528-0.72,1.146-1.292,1.854-1.716c0.707-0.424,1.502-0.636,2.382-0.636
			c1.464,0,2.606,0.508,3.426,1.523c0.819,1.017,1.229,2.54,1.229,4.572c0,0.872-0.113,1.686-0.342,2.441
			c-0.228,0.757-0.563,1.412-1.008,1.969c-0.443,0.556-0.988,0.994-1.632,1.313c-0.644,0.32-1.386,0.48-2.226,0.48
			c-0.809,0-1.508-0.148-2.101-0.444c-0.592-0.296-1.104-0.731-1.536-1.308v5.819h-1.152V13.06h0.637
			c0.199,0,0.316,0.101,0.348,0.301L210.899,15.208z M210.947,22.396c0.232,0.344,0.475,0.634,0.727,0.869
			c0.252,0.236,0.518,0.429,0.798,0.576c0.28,0.148,0.577,0.254,0.894,0.318s0.65,0.096,1.002,0.096c0.704,0,1.32-0.128,1.849-0.384
			s0.97-0.618,1.325-1.086c0.356-0.468,0.625-1.028,0.805-1.68c0.18-0.652,0.27-1.37,0.27-2.154c0-1.776-0.328-3.082-0.983-3.918
			c-0.656-0.836-1.597-1.254-2.82-1.254c-0.792,0-1.508,0.204-2.147,0.611c-0.641,0.408-1.213,0.977-1.717,1.704V22.396z"/>
		<path fill="#FFFFFF" d="M224.291,7.54V25h-1.151V7.54H224.291z"/>
		<path fill="#FFFFFF" d="M227.999,14.752c0.624-0.624,1.28-1.096,1.968-1.416c0.688-0.319,1.469-0.479,2.34-0.479
			c0.641,0,1.201,0.102,1.681,0.306s0.878,0.496,1.194,0.876c0.315,0.38,0.553,0.84,0.713,1.38s0.24,1.143,0.24,1.806V25h-0.455
			c-0.24,0-0.389-0.112-0.444-0.336l-0.168-1.536c-0.328,0.32-0.654,0.608-0.978,0.864c-0.324,0.256-0.662,0.472-1.015,0.647
			c-0.353,0.177-0.731,0.313-1.14,0.408s-0.856,0.145-1.344,0.145c-0.408,0-0.805-0.061-1.188-0.181s-0.726-0.304-1.026-0.552
			c-0.3-0.248-0.539-0.565-0.72-0.954c-0.181-0.388-0.271-0.854-0.271-1.397c0-0.505,0.145-0.973,0.433-1.404
			s0.739-0.808,1.356-1.128c0.615-0.32,1.405-0.576,2.369-0.769c0.965-0.191,2.122-0.304,3.475-0.336v-1.248
			c0-1.104-0.238-1.953-0.715-2.55c-0.476-0.596-1.182-0.894-2.117-0.894c-0.576,0-1.066,0.08-1.471,0.239
			c-0.404,0.16-0.746,0.337-1.025,0.528c-0.28,0.192-0.508,0.368-0.684,0.528c-0.177,0.16-0.324,0.24-0.445,0.24
			c-0.088,0-0.16-0.021-0.215-0.061c-0.057-0.04-0.104-0.092-0.145-0.156L227.999,14.752z M235.02,19.228
			c-1.137,0.041-2.114,0.131-2.935,0.271c-0.819,0.14-1.495,0.33-2.028,0.57c-0.531,0.239-0.926,0.525-1.182,0.857
			s-0.384,0.71-0.384,1.134c0,0.4,0.065,0.746,0.198,1.038c0.132,0.292,0.308,0.532,0.527,0.721
			c0.221,0.188,0.475,0.326,0.762,0.414c0.289,0.088,0.589,0.132,0.9,0.132c0.465,0,0.891-0.05,1.278-0.15
			c0.388-0.1,0.748-0.24,1.08-0.42c0.331-0.18,0.642-0.394,0.93-0.642s0.572-0.517,0.853-0.805V19.228z"/>
		<path fill="#FFFFFF" d="M247.979,14.656c-0.04,0.04-0.078,0.074-0.114,0.102c-0.035,0.028-0.086,0.042-0.15,0.042
			c-0.08,0-0.188-0.054-0.323-0.162c-0.136-0.107-0.32-0.226-0.552-0.354c-0.232-0.128-0.522-0.246-0.871-0.354
			c-0.348-0.107-0.77-0.162-1.266-0.162c-0.688,0-1.298,0.122-1.83,0.366c-0.531,0.244-0.982,0.594-1.35,1.05
			c-0.368,0.456-0.646,1.009-0.834,1.656c-0.188,0.648-0.282,1.376-0.282,2.185c0,0.84,0.099,1.584,0.294,2.231
			c0.196,0.648,0.475,1.194,0.834,1.638c0.36,0.444,0.797,0.782,1.309,1.015c0.512,0.231,1.08,0.348,1.703,0.348
			c0.576,0,1.059-0.067,1.446-0.204c0.388-0.136,0.708-0.283,0.96-0.443s0.45-0.309,0.594-0.444c0.145-0.136,0.265-0.204,0.36-0.204
			c0.097,0,0.177,0.04,0.24,0.12l0.3,0.384c-0.184,0.24-0.416,0.464-0.695,0.672c-0.281,0.208-0.597,0.389-0.949,0.54
			c-0.352,0.152-0.733,0.271-1.146,0.354s-0.842,0.126-1.29,0.126c-0.76,0-1.453-0.139-2.082-0.414
			c-0.628-0.276-1.168-0.676-1.619-1.2c-0.453-0.523-0.805-1.166-1.057-1.926s-0.378-1.624-0.378-2.592
			c0-0.912,0.12-1.744,0.36-2.496s0.592-1.4,1.056-1.944s1.03-0.966,1.698-1.266c0.668-0.301,1.434-0.45,2.298-0.45
			c0.776,0,1.464,0.124,2.063,0.372c0.601,0.248,1.124,0.584,1.572,1.008L247.979,14.656z"/>
		<path fill="#FFFFFF" d="M251.447,18.556v0.229c0,0.896,0.104,1.684,0.313,2.364c0.207,0.68,0.504,1.25,0.888,1.71
			s0.848,0.806,1.392,1.038c0.544,0.231,1.152,0.348,1.824,0.348c0.6,0,1.12-0.066,1.561-0.198c0.439-0.132,0.81-0.28,1.109-0.444
			c0.301-0.163,0.538-0.312,0.714-0.443c0.177-0.132,0.304-0.198,0.384-0.198c0.104,0,0.185,0.04,0.24,0.12l0.313,0.384
			c-0.192,0.24-0.446,0.464-0.762,0.672c-0.316,0.208-0.668,0.387-1.057,0.534c-0.389,0.148-0.804,0.267-1.248,0.354
			c-0.443,0.088-0.891,0.132-1.338,0.132c-0.816,0-1.561-0.143-2.232-0.426c-0.672-0.284-1.248-0.698-1.728-1.242
			s-0.851-1.21-1.11-1.998s-0.39-1.69-0.39-2.706c0-0.856,0.122-1.646,0.366-2.37s0.596-1.348,1.056-1.872
			c0.46-0.523,1.024-0.934,1.692-1.23c0.668-0.295,1.426-0.443,2.273-0.443c0.672,0,1.297,0.116,1.872,0.348
			c0.576,0.232,1.076,0.57,1.5,1.015c0.425,0.443,0.759,0.989,1.002,1.638c0.244,0.647,0.366,1.392,0.366,2.231
			c0,0.177-0.023,0.297-0.072,0.36c-0.048,0.064-0.128,0.096-0.24,0.096H251.447z M259.416,17.824c0-0.641-0.091-1.214-0.271-1.723
			c-0.181-0.508-0.435-0.938-0.763-1.29c-0.328-0.352-0.718-0.621-1.17-0.81c-0.451-0.188-0.949-0.282-1.494-0.282
			c-0.615,0-1.168,0.097-1.655,0.288c-0.488,0.192-0.91,0.468-1.267,0.828c-0.355,0.36-0.642,0.792-0.857,1.296
			c-0.217,0.504-0.36,1.068-0.432,1.692H259.416z"/>
	</g>
	<g>
		<path fill="#FFFFFF" d="M11.968,14.304c-0.48,1.842-1.009,3.672-1.584,5.488c-0.534,1.688-1.094,3.368-1.68,5.04H5.536
			c-0.478-1.107-0.926-2.229-1.344-3.359c-0.47-1.26-0.939-2.604-1.408-4.033c-0.491-1.496-0.96-3.001-1.408-4.511
			C0.906,11.349,0.448,9.738,0,8.096h4.096c0.192,0.896,0.416,1.861,0.672,2.896c0.256,1.035,0.523,2.09,0.8,3.168
			c0.277,1.077,0.565,2.128,0.864,3.152c0.299,1.023,0.597,1.963,0.896,2.815c0.665-2.042,1.273-4.101,1.824-6.176
			c0.277-1.045,0.539-2.064,0.784-3.056s0.464-1.925,0.656-2.8h2.976c0.431,1.959,0.895,3.912,1.392,5.856
			c0.268,1.05,0.556,2.097,0.864,3.136c0.31,1.045,0.624,2.059,0.944,3.04c0.277-0.853,0.565-1.792,0.864-2.815
			c0.299-1.024,0.592-2.076,0.88-3.152c0.288-1.077,0.56-2.133,0.816-3.168c0.256-1.035,0.48-2,0.672-2.896h4
			c-0.44,1.616-0.899,3.227-1.376,4.832c-0.47,1.579-0.939,3.083-1.408,4.511c-0.47,1.431-0.939,2.773-1.408,4.033
			c-0.419,1.135-0.878,2.256-1.376,3.359h-3.136c-0.587-1.674-1.158-3.354-1.712-5.04C12.988,17.98,12.449,16.15,11.968,14.304
			L11.968,14.304z M39.984,20.064c-0.384,1.088-0.928,2.016-1.632,2.783c-0.71,0.773-1.578,1.384-2.544,1.793
			c-0.992,0.426-2.085,0.639-3.28,0.639c-1.195,0-2.283-0.213-3.264-0.639c-0.96-0.412-1.822-1.023-2.528-1.793
			c-0.704-0.768-1.253-1.695-1.648-2.783s-0.592-2.293-0.592-3.617c0-1.322,0.197-2.522,0.592-3.599c0.395-1.077,0.95-2,1.664-2.768
			c0.712-0.766,1.58-1.372,2.544-1.776c0.981-0.416,2.059-0.624,3.232-0.624c1.173,0,2.256,0.208,3.248,0.624
			c0.968,0.399,1.836,1.005,2.544,1.776c0.704,0.768,1.253,1.69,1.648,2.768c0.395,1.077,0.592,2.277,0.592,3.599
			C40.56,17.771,40.368,18.977,39.984,20.064z M36.592,16.447c0-1.663-0.357-2.98-1.072-3.951c-0.715-0.97-1.712-1.456-2.992-1.456
			c-1.28,0-2.277,0.485-2.992,1.456c-0.715,0.97-1.072,2.288-1.072,3.951c0,1.686,0.357,3.02,1.072,4
			c0.715,0.982,1.712,1.473,2.992,1.473c1.28,0,2.277-0.49,2.992-1.473C36.235,19.467,36.592,18.133,36.592,16.447z M52.896,11.584
			c-0.32-0.107-0.763-0.219-1.328-0.336c-0.648-0.125-1.308-0.184-1.968-0.176c-0.427,0-0.88,0.043-1.36,0.128
			c-0.479,0.085-0.816,0.16-1.008,0.224v13.408H43.36V8.896c0.747-0.277,1.68-0.539,2.8-0.784c1.12-0.245,2.363-0.368,3.728-0.368
			c0.256,0,0.555,0.016,0.896,0.048c0.341,0.032,0.683,0.075,1.024,0.128c0.341,0.053,0.672,0.117,0.992,0.192
			c0.32,0.075,0.576,0.144,0.768,0.208L52.896,11.584z M58.928,14.624c0.524-0.548,1.047-1.097,1.568-1.648
			c0.55-0.582,1.094-1.168,1.632-1.76c0.533-0.587,1.04-1.152,1.52-1.696s0.89-1.019,1.232-1.424h4.576
			c-1.114,1.247-2.24,2.484-3.376,3.712c-1.17,1.266-2.36,2.514-3.568,3.745c0.712,0.602,1.385,1.248,2.016,1.936
			c0.719,0.773,1.402,1.58,2.048,2.416c0.661,0.853,1.28,1.707,1.856,2.56c0.521,0.764,1.002,1.554,1.44,2.368h-4.48
			c-0.416-0.711-0.858-1.404-1.328-2.08c-0.504-0.729-1.044-1.434-1.616-2.111c-0.562-0.668-1.149-1.314-1.76-1.937
			c-0.545-0.563-1.134-1.081-1.76-1.552v7.68h-3.872V0.64L58.928,0V14.624z M77.376,22.111c1.195,0,2.101-0.063,2.72-0.191v-4.288
			c-0.305-0.083-0.615-0.147-0.928-0.192c-0.445-0.066-0.894-0.099-1.344-0.096c-0.427,0-0.859,0.032-1.296,0.096
			c-0.41,0.057-0.81,0.176-1.184,0.353c-0.352,0.17-0.635,0.41-0.848,0.72c-0.213,0.311-0.32,0.699-0.32,1.168
			c0,0.918,0.288,1.553,0.864,1.904S76.395,22.111,77.376,22.111z M77.056,7.68c1.28,0,2.357,0.16,3.232,0.48
			c0.875,0.32,1.573,0.768,2.096,1.344c0.523,0.576,0.896,1.275,1.12,2.096c0.224,0.821,0.336,1.723,0.336,2.704v10.143
			c-0.597,0.129-1.499,0.283-2.704,0.465c-1.205,0.182-2.565,0.271-4.08,0.271c-1.003,0-1.92-0.096-2.752-0.287
			c-0.832-0.192-1.541-0.502-2.128-0.928c-0.591-0.432-1.063-1.004-1.376-1.664c-0.33-0.684-0.496-1.525-0.496-2.529
			c0-0.959,0.187-1.77,0.56-2.432c0.373-0.66,0.88-1.199,1.52-1.615c0.64-0.417,1.381-0.715,2.224-0.896
			c0.868-0.184,1.753-0.275,2.64-0.272c0.96,0.002,1.917,0.12,2.848,0.352v-0.64c0.002-0.432-0.052-0.862-0.16-1.28
			c-0.102-0.396-0.293-0.763-0.56-1.072c-0.287-0.323-0.65-0.571-1.056-0.72c-0.437-0.17-0.987-0.256-1.648-0.256
			c-0.896,0-1.717,0.064-2.464,0.192c-0.747,0.128-1.355,0.277-1.824,0.448l-0.48-3.136c0.49-0.17,1.205-0.341,2.144-0.512
			C74.987,7.766,75.989,7.68,77.056,7.68z M87.184,3.68l3.872-0.64v5.056h5.952v3.232h-5.952v6.816c0,1.344,0.213,2.303,0.639,2.879
			c0.428,0.576,1.152,0.865,2.177,0.865c0.704,0,1.328-0.076,1.872-0.225c0.544-0.15,0.977-0.288,1.296-0.416l0.64,3.072
			c-0.447,0.191-1.035,0.39-1.76,0.592c-0.725,0.203-1.579,0.304-2.561,0.304c-1.194,0-2.191-0.159-2.991-0.479
			c-0.8-0.32-1.435-0.784-1.904-1.393c-0.47-0.607-0.8-1.344-0.992-2.207c-0.192-0.865-0.288-1.851-0.288-2.961V3.68z
			 M114.688,16.447c0,1.324-0.191,2.529-0.576,3.617c-0.383,1.088-0.928,2.016-1.631,2.783c-0.711,0.773-1.578,1.384-2.545,1.793
			c-0.992,0.426-2.084,0.639-3.279,0.639s-2.283-0.213-3.264-0.639c-0.961-0.412-1.822-1.023-2.529-1.793
			c-0.703-0.768-1.252-1.695-1.647-2.783s-0.592-2.293-0.592-3.617c0-1.322,0.196-2.522,0.592-3.599c0.396-1.077,0.95-2,1.664-2.768
			c0.712-0.766,1.579-1.372,2.544-1.776c0.98-0.416,2.059-0.624,3.232-0.624c1.173,0,2.256,0.208,3.248,0.624
			c0.967,0.399,1.836,1.005,2.543,1.776c0.705,0.768,1.254,1.69,1.648,2.768C114.491,13.925,114.688,15.125,114.688,16.447
			L114.688,16.447z M110.721,16.447c0-1.663-0.357-2.98-1.072-3.951c-0.715-0.97-1.713-1.456-2.992-1.456
			c-1.28,0-2.277,0.485-2.992,1.456c-0.715,0.97-1.072,2.288-1.072,3.951c0,1.686,0.357,3.02,1.072,4
			c0.715,0.982,1.712,1.473,2.992,1.473c1.279,0,2.277-0.49,2.992-1.473C110.363,19.467,110.721,18.133,110.721,16.447z M125,0h1v30
			h-1V0z"/>
	</g>
</g>
</svg>
