<?xml version="1.0" encoding="utf-8"?>
<!-- Generator: Adobe Illustrator 16.0.0, SVG Export Plug-In . SVG Version: 6.00 Build 0)  -->
<!DOCTYPE svg PUBLIC "-//W3C//DTD SVG 1.1//EN" "http://www.w3.org/Graphics/SVG/1.1/DTD/svg11.dtd">
<svg version="1.1" id="Layer_1" xmlns="http://www.w3.org/2000/svg" xmlns:xlink="http://www.w3.org/1999/xlink" x="0px" y="0px"
	 width="294.167px" height="30px" viewBox="0 0 294.167 30" enable-background="new 0 0 294.167 30" xml:space="preserve">
<g>
	<g enable-background="new    ">
		<path fill="#FFFFFF" d="M145.752,10.084c-0.072,0.136-0.176,0.204-0.313,0.204c-0.104,0-0.238-0.074-0.401-0.222
			c-0.164-0.148-0.386-0.313-0.666-0.492c-0.28-0.181-0.63-0.346-1.05-0.498c-0.42-0.152-0.938-0.229-1.555-0.229
			c-0.615,0-1.158,0.089-1.625,0.265c-0.469,0.176-0.861,0.416-1.177,0.72s-0.556,0.656-0.72,1.056
			c-0.164,0.4-0.246,0.82-0.246,1.261c0,0.575,0.122,1.052,0.366,1.428c0.243,0.376,0.565,0.696,0.966,0.96s0.854,0.486,1.361,0.666
			c0.509,0.18,1.031,0.357,1.566,0.533c0.536,0.177,1.059,0.371,1.566,0.582c0.507,0.213,0.962,0.479,1.361,0.799
			c0.4,0.32,0.723,0.714,0.967,1.182c0.244,0.469,0.365,1.051,0.365,1.746c0,0.712-0.121,1.383-0.365,2.01
			c-0.244,0.629-0.599,1.176-1.063,1.639c-0.464,0.465-1.031,0.83-1.703,1.099c-0.673,0.269-1.44,0.401-2.305,0.401
			c-1.12,0-2.084-0.197-2.893-0.594c-0.808-0.396-1.516-0.938-2.123-1.627l0.336-0.527c0.096-0.119,0.207-0.18,0.336-0.18
			c0.072,0,0.164,0.047,0.275,0.145c0.112,0.096,0.248,0.214,0.408,0.354c0.16,0.141,0.352,0.293,0.576,0.457
			c0.224,0.163,0.484,0.315,0.779,0.455c0.297,0.141,0.637,0.258,1.021,0.354c0.384,0.097,0.82,0.145,1.308,0.145
			c0.672,0,1.272-0.102,1.801-0.306c0.527-0.204,0.974-0.481,1.338-0.834c0.363-0.353,0.643-0.771,0.834-1.255
			c0.191-0.483,0.288-1.002,0.288-1.555c0-0.6-0.122-1.094-0.366-1.48s-0.566-0.713-0.966-0.973c-0.4-0.26-0.854-0.479-1.362-0.653
			c-0.508-0.175-1.029-0.349-1.566-0.517c-0.535-0.168-1.058-0.355-1.565-0.563c-0.509-0.208-0.962-0.476-1.362-0.798
			c-0.4-0.324-0.722-0.729-0.966-1.212c-0.244-0.484-0.366-1.09-0.366-1.818c0-0.568,0.108-1.116,0.324-1.644
			c0.217-0.528,0.532-0.994,0.948-1.398c0.415-0.404,0.93-0.728,1.542-0.972c0.611-0.244,1.31-0.366,2.094-0.366
			c0.88,0,1.67,0.14,2.37,0.42c0.7,0.28,1.338,0.708,1.914,1.284L145.752,10.084z"/>
		<path fill="#FFFFFF" d="M158.796,13.06V25h-0.637c-0.199,0-0.315-0.104-0.348-0.313l-0.107-1.775
			c-0.553,0.688-1.19,1.24-1.914,1.656c-0.725,0.416-1.53,0.623-2.418,0.623c-0.664,0-1.244-0.104-1.74-0.313
			s-0.907-0.508-1.235-0.898c-0.328-0.394-0.576-0.864-0.744-1.416c-0.168-0.553-0.252-1.178-0.252-1.873V13.06h1.151v7.633
			c0,1.119,0.257,1.998,0.769,2.634c0.513,0.636,1.291,0.954,2.341,0.954c0.774,0,1.502-0.198,2.178-0.596
			c0.676-0.396,1.276-0.944,1.807-1.648V13.06H158.796z"/>
		<path fill="#FFFFFF" d="M170.748,14.656c-0.039,0.04-0.078,0.074-0.113,0.102c-0.036,0.028-0.086,0.042-0.149,0.042
			c-0.08,0-0.188-0.054-0.323-0.162c-0.138-0.107-0.32-0.226-0.554-0.354c-0.231-0.128-0.521-0.246-0.869-0.354
			c-0.348-0.107-0.771-0.162-1.266-0.162c-0.688,0-1.3,0.122-1.83,0.366c-0.533,0.244-0.981,0.594-1.351,1.05
			c-0.369,0.457-0.646,1.009-0.834,1.656c-0.188,0.648-0.283,1.376-0.283,2.186c0,0.84,0.099,1.584,0.295,2.23
			c0.195,0.648,0.474,1.194,0.834,1.639c0.359,0.443,0.796,0.781,1.308,1.015c0.513,0.231,1.08,0.348,1.705,0.348
			c0.576,0,1.058-0.067,1.445-0.204c0.389-0.136,0.708-0.283,0.961-0.443c0.252-0.159,0.448-0.309,0.594-0.443
			c0.144-0.137,0.265-0.204,0.358-0.204c0.096,0,0.177,0.04,0.24,0.12l0.301,0.384c-0.186,0.24-0.416,0.464-0.696,0.673
			c-0.278,0.207-0.597,0.389-0.947,0.539c-0.353,0.152-0.733,0.271-1.146,0.354c-0.412,0.084-0.842,0.127-1.29,0.127
			c-0.761,0-1.454-0.139-2.082-0.414s-1.168-0.676-1.62-1.2c-0.451-0.522-0.805-1.166-1.057-1.926
			c-0.252-0.761-0.379-1.626-0.379-2.595c0-0.912,0.121-1.744,0.359-2.496c0.24-0.752,0.592-1.399,1.057-1.943
			s1.029-0.966,1.697-1.266c0.668-0.301,1.436-0.45,2.299-0.45c0.775,0,1.465,0.124,2.064,0.372c0.6,0.248,1.123,0.584,1.57,1.008
			L170.748,14.656z"/>
		<path fill="#FFFFFF" d="M181.835,14.656c-0.039,0.04-0.078,0.074-0.113,0.102c-0.036,0.028-0.086,0.042-0.149,0.042
			c-0.079,0-0.188-0.054-0.323-0.162c-0.138-0.107-0.32-0.226-0.554-0.354c-0.231-0.128-0.521-0.246-0.868-0.354
			c-0.349-0.107-0.771-0.162-1.267-0.162c-0.688,0-1.299,0.122-1.83,0.366c-0.533,0.244-0.981,0.594-1.351,1.05
			c-0.369,0.457-0.646,1.009-0.834,1.656c-0.188,0.648-0.282,1.376-0.282,2.186c0,0.84,0.098,1.584,0.294,2.23
			c0.195,0.648,0.474,1.194,0.834,1.639c0.359,0.443,0.796,0.781,1.309,1.015c0.512,0.231,1.079,0.348,1.704,0.348
			c0.576,0,1.058-0.067,1.445-0.204c0.389-0.136,0.708-0.283,0.961-0.443c0.252-0.159,0.449-0.309,0.594-0.443
			c0.144-0.137,0.265-0.204,0.359-0.204s0.176,0.04,0.239,0.12l0.301,0.384c-0.186,0.24-0.416,0.464-0.696,0.673
			c-0.278,0.207-0.596,0.389-0.946,0.539c-0.354,0.152-0.734,0.271-1.146,0.354c-0.412,0.084-0.842,0.127-1.29,0.127
			c-0.761,0-1.454-0.139-2.082-0.414s-1.168-0.676-1.62-1.2c-0.451-0.522-0.804-1.166-1.057-1.926
			c-0.252-0.761-0.377-1.624-0.377-2.593c0-0.912,0.119-1.744,0.358-2.496c0.24-0.752,0.593-1.399,1.058-1.943
			c0.464-0.544,1.029-0.966,1.697-1.266c0.668-0.301,1.435-0.45,2.299-0.45c0.774,0,1.463,0.124,2.063,0.372
			c0.601,0.248,1.123,0.584,1.571,1.008L181.835,14.656z"/>
		<path fill="#FFFFFF" d="M185.305,18.557v0.229c0,0.896,0.104,1.684,0.312,2.363c0.209,0.681,0.504,1.25,0.889,1.711
			c0.385,0.459,0.848,0.806,1.393,1.037c0.543,0.231,1.152,0.349,1.824,0.349c0.6,0,1.119-0.065,1.56-0.198
			c0.441-0.132,0.81-0.279,1.11-0.443c0.3-0.164,0.537-0.313,0.713-0.443c0.177-0.133,0.305-0.198,0.385-0.198
			c0.104,0,0.184,0.04,0.24,0.12l0.313,0.384c-0.192,0.24-0.446,0.464-0.763,0.673c-0.315,0.207-0.668,0.387-1.056,0.533
			c-0.389,0.148-0.805,0.268-1.248,0.354c-0.444,0.088-0.891,0.133-1.338,0.133c-0.816,0-1.561-0.143-2.232-0.426
			c-0.672-0.285-1.248-0.698-1.729-1.242c-0.479-0.545-0.85-1.211-1.109-1.998c-0.259-0.788-0.391-1.689-0.391-2.706
			c0-0.856,0.123-1.646,0.365-2.37c0.244-0.725,0.598-1.348,1.057-1.872c0.461-0.523,1.023-0.934,1.691-1.23
			c0.668-0.295,1.428-0.443,2.274-0.443c0.672,0,1.296,0.116,1.871,0.348c0.576,0.232,1.076,0.57,1.5,1.015
			c0.425,0.443,0.759,0.989,1.002,1.638c0.244,0.647,0.367,1.392,0.367,2.231c0,0.176-0.024,0.297-0.072,0.359
			c-0.049,0.064-0.129,0.096-0.239,0.096h-8.688V18.557z M193.272,17.824c0-0.641-0.091-1.215-0.271-1.723
			c-0.181-0.508-0.435-0.938-0.763-1.291c-0.327-0.352-0.719-0.621-1.17-0.81c-0.452-0.188-0.95-0.282-1.493-0.282
			c-0.617,0-1.168,0.097-1.656,0.288c-0.488,0.192-0.91,0.468-1.267,0.828s-0.643,0.792-0.856,1.296
			c-0.217,0.504-0.361,1.068-0.434,1.691h7.909V17.824z"/>
		<path fill="#FFFFFF" d="M203.977,14.536c-0.063,0.112-0.156,0.168-0.276,0.168c-0.088,0-0.199-0.05-0.336-0.15
			c-0.136-0.1-0.316-0.212-0.546-0.336c-0.229-0.124-0.51-0.235-0.846-0.336c-0.336-0.1-0.744-0.149-1.226-0.149
			c-0.432,0-0.826,0.062-1.182,0.186s-0.66,0.29-0.912,0.498s-0.445,0.45-0.582,0.726s-0.203,0.566-0.203,0.871
			c0,0.375,0.096,0.688,0.287,0.937s0.441,0.46,0.75,0.636s0.662,0.328,1.063,0.456c0.399,0.128,0.806,0.256,1.218,0.384
			c0.411,0.129,0.816,0.271,1.218,0.426c0.4,0.156,0.755,0.352,1.063,0.582c0.308,0.232,0.558,0.518,0.75,0.854
			c0.191,0.336,0.287,0.744,0.287,1.225c0,0.52-0.092,1.004-0.275,1.451c-0.184,0.448-0.454,0.836-0.811,1.164
			c-0.355,0.328-0.793,0.588-1.313,0.779s-1.116,0.289-1.788,0.289c-0.84,0-1.564-0.135-2.172-0.402s-1.152-0.618-1.633-1.05
			l0.265-0.408c0.04-0.063,0.086-0.112,0.138-0.144c0.054-0.032,0.123-0.049,0.211-0.049c0.104,0,0.229,0.063,0.377,0.191
			c0.148,0.128,0.347,0.266,0.595,0.414s0.555,0.286,0.918,0.414c0.364,0.128,0.813,0.191,1.351,0.191
			c0.504,0,0.948-0.069,1.332-0.211c0.385-0.14,0.704-0.33,0.961-0.568c0.256-0.24,0.449-0.521,0.582-0.848
			c0.131-0.322,0.197-0.666,0.197-1.024c0-0.399-0.098-0.731-0.288-0.996s-0.444-0.487-0.756-0.672
			c-0.313-0.185-0.666-0.341-1.063-0.468c-0.396-0.129-0.802-0.258-1.218-0.385c-0.416-0.129-0.821-0.269-1.218-0.42
			c-0.396-0.152-0.75-0.345-1.063-0.576s-0.563-0.515-0.756-0.847c-0.191-0.332-0.287-0.745-0.287-1.241
			c0-0.425,0.092-0.833,0.274-1.225s0.445-0.736,0.785-1.032c0.341-0.296,0.755-0.532,1.241-0.708
			c0.488-0.176,1.037-0.264,1.646-0.264c0.729,0,1.374,0.104,1.938,0.312c0.563,0.208,1.078,0.528,1.543,0.96L203.977,14.536z"/>
		<path fill="#FFFFFF" d="M214.175,14.536c-0.063,0.112-0.155,0.168-0.274,0.168c-0.088,0-0.2-0.05-0.336-0.15
			c-0.137-0.1-0.317-0.212-0.547-0.336c-0.228-0.124-0.511-0.235-0.847-0.336c-0.336-0.1-0.743-0.149-1.224-0.149
			c-0.433,0-0.825,0.062-1.183,0.186c-0.355,0.124-0.66,0.29-0.912,0.498s-0.445,0.45-0.582,0.726
			c-0.136,0.276-0.203,0.566-0.203,0.871c0,0.375,0.096,0.688,0.287,0.937c0.191,0.247,0.441,0.46,0.75,0.636
			s0.662,0.328,1.063,0.456c0.401,0.128,0.808,0.256,1.22,0.384c0.411,0.129,0.817,0.271,1.217,0.426
			c0.399,0.156,0.754,0.352,1.063,0.582c0.309,0.232,0.559,0.518,0.75,0.854c0.19,0.336,0.287,0.744,0.287,1.225
			c0,0.52-0.093,1.004-0.275,1.451c-0.184,0.448-0.453,0.836-0.811,1.164c-0.356,0.328-0.793,0.588-1.313,0.779
			c-0.521,0.191-1.117,0.289-1.789,0.289c-0.84,0-1.563-0.135-2.172-0.402c-0.607-0.268-1.152-0.618-1.633-1.05l0.266-0.408
			c0.039-0.063,0.086-0.112,0.139-0.144c0.051-0.032,0.121-0.049,0.209-0.049c0.104,0,0.229,0.063,0.379,0.191
			c0.146,0.128,0.346,0.266,0.594,0.414s0.554,0.286,0.918,0.414c0.363,0.128,0.813,0.191,1.351,0.191
			c0.504,0,0.947-0.069,1.332-0.211c0.384-0.14,0.703-0.33,0.959-0.568c0.256-0.24,0.451-0.521,0.582-0.848
			c0.133-0.322,0.199-0.666,0.199-1.024c0-0.399-0.097-0.731-0.289-0.996c-0.19-0.265-0.442-0.487-0.756-0.672
			c-0.312-0.185-0.666-0.341-1.062-0.468c-0.396-0.129-0.803-0.258-1.219-0.385c-0.416-0.129-0.822-0.269-1.219-0.42
			c-0.396-0.152-0.75-0.345-1.063-0.576c-0.312-0.231-0.563-0.515-0.757-0.847c-0.19-0.332-0.287-0.745-0.287-1.241
			c0-0.425,0.093-0.833,0.275-1.225s0.446-0.736,0.786-1.032c0.341-0.296,0.755-0.532,1.242-0.708
			c0.486-0.176,1.035-0.264,1.644-0.264c0.729,0,1.375,0.104,1.938,0.312c0.563,0.208,1.078,0.528,1.541,0.96L214.175,14.536z"/>
		<path fill="#FFFFFF" d="M237.119,22.145c0.08,0,0.148,0.027,0.204,0.084l0.479,0.517c-0.352,0.376-0.733,0.714-1.146,1.014
			c-0.412,0.3-0.863,0.558-1.355,0.769c-0.491,0.213-1.031,0.377-1.619,0.492s-1.234,0.174-1.938,0.174
			c-1.177,0-2.255-0.205-3.233-0.617c-0.98-0.412-1.822-0.996-2.526-1.752s-1.25-1.67-1.638-2.742
			c-0.39-1.072-0.582-2.264-0.582-3.576c0-1.288,0.198-2.464,0.6-3.528c0.4-1.063,0.96-1.978,1.681-2.741
			c0.721-0.765,1.584-1.356,2.592-1.776c1.009-0.42,2.121-0.63,3.336-0.63c1.16,0,2.188,0.18,3.084,0.54
			c0.896,0.359,1.713,0.868,2.449,1.523l-0.373,0.54c-0.063,0.097-0.164,0.145-0.299,0.145c-0.098,0-0.252-0.088-0.47-0.265
			c-0.216-0.176-0.516-0.369-0.899-0.581c-0.383-0.212-0.861-0.406-1.435-0.582c-0.571-0.177-1.258-0.265-2.059-0.265
			c-1.023,0-1.961,0.177-2.813,0.528c-0.852,0.351-1.584,0.856-2.195,1.512c-0.611,0.656-1.09,1.456-1.435,2.4
			c-0.344,0.943-0.516,2.004-0.516,3.18c0,1.2,0.174,2.271,0.521,3.217c0.348,0.943,0.826,1.741,1.434,2.395
			c0.609,0.652,1.326,1.15,2.154,1.5c0.828,0.348,1.724,0.521,2.683,0.521c0.608,0,1.149-0.041,1.627-0.121
			c0.476-0.078,0.914-0.199,1.313-0.358c0.399-0.16,0.771-0.356,1.115-0.589c0.344-0.231,0.684-0.504,1.02-0.815
			c0.041-0.032,0.08-0.058,0.121-0.077C237.039,22.154,237.08,22.145,237.119,22.145z"/>
		<path fill="#FFFFFF" d="M240.731,18.557v0.229c0,0.896,0.104,1.684,0.312,2.363c0.209,0.681,0.504,1.25,0.89,1.711
			c0.384,0.459,0.848,0.806,1.392,1.037c0.545,0.231,1.152,0.349,1.824,0.349c0.602,0,1.12-0.065,1.561-0.198
			c0.439-0.132,0.811-0.279,1.109-0.443c0.301-0.164,0.538-0.313,0.715-0.443c0.176-0.131,0.305-0.198,0.385-0.198
			c0.104,0,0.184,0.04,0.238,0.12l0.313,0.384c-0.191,0.24-0.445,0.464-0.762,0.673c-0.317,0.207-0.668,0.387-1.057,0.533
			c-0.388,0.148-0.804,0.268-1.248,0.354c-0.443,0.088-0.89,0.133-1.338,0.133c-0.814,0-1.561-0.143-2.23-0.426
			c-0.672-0.285-1.248-0.698-1.729-1.242c-0.481-0.545-0.851-1.211-1.108-1.998c-0.262-0.788-0.392-1.689-0.392-2.706
			c0-0.856,0.122-1.646,0.365-2.37s0.597-1.348,1.057-1.872c0.46-0.523,1.022-0.934,1.69-1.23c0.669-0.295,1.428-0.443,2.275-0.443
			c0.672,0,1.295,0.116,1.871,0.348c0.576,0.232,1.076,0.57,1.5,1.015c0.424,0.443,0.758,0.989,1.002,1.638
			c0.244,0.647,0.366,1.392,0.366,2.231c0,0.176-0.024,0.297-0.071,0.359c-0.049,0.064-0.129,0.096-0.24,0.096h-8.688V18.557z
			 M248.699,17.824c0-0.641-0.09-1.215-0.27-1.723s-0.434-0.938-0.762-1.291s-0.72-0.621-1.17-0.81
			c-0.453-0.188-0.951-0.282-1.494-0.282c-0.617,0-1.168,0.097-1.656,0.288c-0.488,0.192-0.91,0.468-1.266,0.828
			c-0.356,0.36-0.644,0.792-0.858,1.296c-0.216,0.504-0.36,1.068-0.433,1.691h7.908V17.824z"/>
		<path fill="#FFFFFF" d="M253.932,15.148c0.552-0.688,1.188-1.24,1.914-1.656c0.724-0.416,1.528-0.624,2.418-0.624
			c0.655,0,1.233,0.104,1.733,0.312s0.914,0.509,1.242,0.9c0.327,0.392,0.575,0.864,0.743,1.416
			c0.168,0.552,0.252,1.176,0.252,1.872V25h-1.151v-7.632c0-1.12-0.256-1.998-0.769-2.634c-0.512-0.637-1.292-0.954-2.34-0.954
			c-0.776,0-1.502,0.197-2.179,0.594c-0.676,0.396-1.277,0.946-1.805,1.649V25h-1.152V13.06h0.636c0.2,0,0.315,0.101,0.349,0.301
			L253.932,15.148z"/>
		<path fill="#FFFFFF" d="M269.148,25.191c-0.809,0-1.438-0.225-1.891-0.672c-0.451-0.447-0.678-1.141-0.678-2.076v-8.159h-1.717
			c-0.089,0-0.16-0.024-0.216-0.072c-0.058-0.048-0.084-0.116-0.084-0.204v-0.443l2.039-0.145l0.289-4.271
			c0.016-0.072,0.047-0.137,0.096-0.192c0.048-0.056,0.115-0.084,0.203-0.084h0.541v4.56h3.769v0.853h-3.769v8.101
			c0,0.327,0.041,0.609,0.125,0.846s0.201,0.431,0.349,0.582s0.321,0.265,0.522,0.336c0.198,0.072,0.416,0.107,0.647,0.107
			c0.287,0,0.535-0.042,0.744-0.126c0.207-0.084,0.387-0.176,0.539-0.276c0.152-0.1,0.275-0.19,0.372-0.274s0.173-0.126,0.228-0.126
			c0.064,0,0.129,0.04,0.193,0.12l0.312,0.504c-0.304,0.336-0.689,0.604-1.158,0.81C270.139,25.09,269.652,25.191,269.148,25.191z"
			/>
		<path fill="#FFFFFF" d="M274.476,18.557v0.229c0,0.896,0.104,1.684,0.313,2.363c0.209,0.681,0.504,1.25,0.889,1.711
			c0.384,0.459,0.848,0.806,1.392,1.037s1.152,0.349,1.824,0.349c0.601,0,1.12-0.065,1.56-0.198c0.44-0.132,0.812-0.279,1.11-0.443
			c0.3-0.164,0.538-0.313,0.714-0.443s0.305-0.198,0.385-0.198c0.104,0,0.185,0.04,0.239,0.12l0.312,0.384
			c-0.19,0.24-0.444,0.464-0.762,0.673c-0.316,0.207-0.668,0.387-1.056,0.533c-0.388,0.148-0.804,0.268-1.248,0.354
			c-0.444,0.088-0.89,0.133-1.338,0.133c-0.815,0-1.56-0.143-2.231-0.426c-0.672-0.285-1.248-0.698-1.729-1.242
			c-0.48-0.545-0.85-1.211-1.109-1.998c-0.261-0.788-0.391-1.689-0.391-2.706c0-0.856,0.122-1.646,0.365-2.37
			c0.244-0.725,0.597-1.348,1.057-1.872c0.46-0.523,1.023-0.934,1.691-1.23c0.668-0.295,1.427-0.443,2.274-0.443
			c0.673,0,1.296,0.116,1.871,0.348c0.576,0.232,1.076,0.57,1.5,1.015c0.425,0.443,0.759,0.989,1.002,1.638
			c0.244,0.647,0.366,1.392,0.366,2.231c0,0.176-0.023,0.297-0.071,0.359c-0.049,0.064-0.129,0.096-0.239,0.096h-8.689V18.557z
			 M282.443,17.824c0-0.641-0.09-1.215-0.27-1.723s-0.435-0.938-0.762-1.291c-0.328-0.352-0.72-0.621-1.17-0.81
			c-0.453-0.188-0.951-0.282-1.494-0.282c-0.617,0-1.168,0.097-1.656,0.288c-0.488,0.192-0.91,0.468-1.266,0.828
			c-0.356,0.36-0.644,0.792-0.859,1.296c-0.215,0.504-0.359,1.068-0.432,1.691h7.908V17.824z"/>
		<path fill="#FFFFFF" d="M287.676,15.939c0.184-0.487,0.395-0.922,0.63-1.302c0.234-0.38,0.508-0.702,0.814-0.966
			c0.31-0.264,0.652-0.466,1.033-0.605c0.379-0.141,0.801-0.21,1.266-0.21c0.248,0,0.492,0.021,0.732,0.065
			c0.239,0.044,0.451,0.122,0.635,0.234l-0.096,0.792c-0.04,0.128-0.115,0.191-0.229,0.191c-0.097,0-0.241-0.027-0.438-0.084
			c-0.195-0.056-0.453-0.084-0.773-0.084c-0.465,0-0.875,0.07-1.229,0.21c-0.354,0.141-0.676,0.351-0.96,0.63
			c-0.284,0.28-0.532,0.627-0.743,1.038c-0.213,0.412-0.405,0.887-0.582,1.424V25h-1.151V13.06h0.61
			c0.138,0,0.232,0.028,0.289,0.084c0.056,0.057,0.093,0.152,0.106,0.288L287.676,15.939z"/>
	</g>
	<g>
		<path fill="#FFFFFF" d="M11.968,14.304c-0.48,1.842-1.009,3.672-1.584,5.488c-0.534,1.688-1.094,3.368-1.68,5.04H5.536
			c-0.478-1.107-0.926-2.229-1.344-3.359c-0.47-1.26-0.939-2.604-1.408-4.033c-0.491-1.496-0.96-3-1.408-4.51
			C0.906,11.349,0.448,9.738,0,8.096h4.096c0.192,0.896,0.416,1.861,0.672,2.896c0.256,1.035,0.523,2.09,0.8,3.168
			c0.277,1.077,0.565,2.128,0.864,3.152c0.299,1.022,0.597,1.963,0.896,2.814c0.665-2.042,1.273-4.102,1.824-6.176
			c0.277-1.045,0.539-2.064,0.784-3.056s0.464-1.925,0.656-2.8h2.976c0.431,1.959,0.895,3.912,1.392,5.856
			c0.268,1.05,0.556,2.097,0.864,3.136c0.31,1.045,0.624,2.06,0.944,3.04c0.277-0.854,0.565-1.792,0.864-2.814
			c0.299-1.024,0.592-2.077,0.88-3.152c0.288-1.077,0.56-2.133,0.816-3.168c0.256-1.035,0.48-2,0.672-2.896h4
			c-0.44,1.616-0.899,3.227-1.376,4.832c-0.47,1.579-0.939,3.083-1.408,4.511c-0.47,1.431-0.939,2.772-1.408,4.033
			c-0.419,1.135-0.878,2.256-1.376,3.358h-3.136c-0.587-1.675-1.158-3.354-1.712-5.04C12.988,17.98,12.449,16.15,11.968,14.304
			L11.968,14.304z M39.984,20.064c-0.384,1.088-0.928,2.016-1.632,2.783c-0.71,0.772-1.578,1.383-2.544,1.793
			c-0.992,0.426-2.085,0.639-3.28,0.639c-1.195,0-2.283-0.213-3.264-0.639c-0.96-0.412-1.822-1.023-2.528-1.793
			c-0.704-0.769-1.253-1.695-1.648-2.783s-0.592-2.293-0.592-3.617c0-1.322,0.197-2.522,0.592-3.599c0.395-1.077,0.95-2,1.664-2.768
			c0.712-0.766,1.58-1.372,2.544-1.776c0.981-0.416,2.059-0.624,3.232-0.624c1.173,0,2.256,0.208,3.248,0.624
			c0.968,0.399,1.836,1.005,2.544,1.776c0.704,0.768,1.253,1.69,1.648,2.768c0.395,1.077,0.592,2.277,0.592,3.599
			C40.56,17.771,40.368,18.977,39.984,20.064z M36.592,16.447c0-1.663-0.357-2.98-1.072-3.951c-0.715-0.97-1.712-1.456-2.992-1.456
			c-1.28,0-2.277,0.485-2.992,1.456c-0.715,0.97-1.072,2.288-1.072,3.951c0,1.686,0.357,3.02,1.072,4
			c0.715,0.982,1.712,1.473,2.992,1.473c1.28,0,2.277-0.49,2.992-1.473C36.235,19.467,36.592,18.133,36.592,16.447z M52.896,11.584
			c-0.32-0.107-0.763-0.219-1.328-0.336c-0.648-0.125-1.308-0.184-1.968-0.176c-0.427,0-0.88,0.043-1.36,0.128
			c-0.479,0.085-0.816,0.16-1.008,0.224v13.408H43.36V8.896c0.747-0.277,1.68-0.539,2.8-0.784c1.12-0.245,2.363-0.368,3.728-0.368
			c0.256,0,0.555,0.016,0.896,0.048c0.341,0.032,0.683,0.075,1.024,0.128c0.341,0.053,0.672,0.117,0.992,0.192
			c0.32,0.075,0.576,0.144,0.768,0.208L52.896,11.584z M58.928,14.624c0.524-0.548,1.047-1.097,1.568-1.648
			c0.55-0.582,1.094-1.168,1.632-1.76c0.533-0.587,1.04-1.152,1.52-1.696s0.89-1.019,1.232-1.424h4.576
			c-1.114,1.247-2.24,2.484-3.376,3.712c-1.17,1.266-2.36,2.514-3.568,3.745c0.712,0.602,1.385,1.248,2.016,1.936
			c0.719,0.773,1.402,1.58,2.048,2.416c0.661,0.854,1.28,1.707,1.856,2.561c0.521,0.764,1.002,1.555,1.44,2.368h-4.48
			c-0.416-0.711-0.858-1.403-1.328-2.08c-0.504-0.729-1.044-1.435-1.616-2.11c-0.562-0.668-1.149-1.314-1.76-1.938
			c-0.545-0.563-1.134-1.081-1.76-1.553v7.681h-3.872V0.64L58.928,0V14.624z M77.376,22.111c1.195,0,2.101-0.063,2.72-0.191v-4.288
			c-0.305-0.083-0.615-0.147-0.928-0.192c-0.445-0.065-0.894-0.099-1.344-0.096c-0.427,0-0.859,0.032-1.296,0.096
			c-0.41,0.058-0.81,0.177-1.184,0.354c-0.352,0.17-0.635,0.41-0.848,0.721s-0.32,0.698-0.32,1.168c0,0.918,0.288,1.553,0.864,1.903
			S76.395,22.111,77.376,22.111z M77.056,7.68c1.28,0,2.357,0.16,3.232,0.48c0.875,0.32,1.573,0.768,2.096,1.344
			c0.523,0.576,0.896,1.275,1.12,2.096c0.224,0.821,0.336,1.723,0.336,2.704v10.143c-0.597,0.129-1.499,0.283-2.704,0.465
			c-1.205,0.182-2.565,0.271-4.08,0.271c-1.003,0-1.92-0.097-2.752-0.287c-0.832-0.192-1.541-0.502-2.128-0.928
			c-0.591-0.433-1.063-1.005-1.376-1.664c-0.33-0.685-0.496-1.525-0.496-2.529c0-0.959,0.187-1.771,0.56-2.432
			c0.373-0.66,0.88-1.199,1.52-1.615c0.64-0.417,1.381-0.715,2.224-0.896c0.868-0.184,1.753-0.275,2.64-0.272
			c0.96,0.002,1.917,0.12,2.848,0.352v-0.64c0.002-0.432-0.052-0.862-0.16-1.28c-0.102-0.396-0.293-0.763-0.56-1.072
			c-0.287-0.323-0.65-0.571-1.056-0.72c-0.437-0.17-0.987-0.256-1.648-0.256c-0.896,0-1.717,0.064-2.464,0.192
			c-0.747,0.128-1.355,0.277-1.824,0.448l-0.48-3.136c0.49-0.17,1.205-0.341,2.144-0.512C74.987,7.766,75.989,7.68,77.056,7.68z
			 M87.184,3.68l3.872-0.64v5.056h5.952v3.232h-5.952v6.816c0,1.344,0.213,2.303,0.639,2.879c0.428,0.576,1.152,0.865,2.177,0.865
			c0.704,0,1.328-0.076,1.872-0.226s0.977-0.288,1.296-0.416l0.64,3.071c-0.447,0.191-1.035,0.391-1.76,0.593
			s-1.579,0.304-2.561,0.304c-1.194,0-2.191-0.158-2.991-0.479c-0.8-0.32-1.435-0.784-1.904-1.393
			c-0.47-0.607-0.8-1.345-0.992-2.207c-0.192-0.865-0.288-1.852-0.288-2.962V3.68L87.184,3.68z M114.688,16.447
			c0,1.324-0.191,2.529-0.576,3.617c-0.383,1.088-0.928,2.016-1.631,2.783c-0.711,0.772-1.578,1.383-2.545,1.793
			c-0.992,0.426-2.084,0.639-3.279,0.639c-1.195,0-2.283-0.213-3.264-0.639c-0.961-0.412-1.822-1.023-2.529-1.793
			c-0.703-0.769-1.252-1.695-1.647-2.783s-0.592-2.293-0.592-3.617c0-1.322,0.196-2.522,0.592-3.599c0.396-1.077,0.95-2,1.664-2.768
			c0.712-0.766,1.579-1.372,2.544-1.776c0.98-0.416,2.059-0.624,3.232-0.624c1.173,0,2.256,0.208,3.248,0.624
			c0.967,0.399,1.836,1.005,2.543,1.776c0.705,0.768,1.254,1.69,1.648,2.768C114.491,13.925,114.688,15.125,114.688,16.447
			L114.688,16.447z M110.721,16.447c0-1.663-0.357-2.98-1.072-3.951c-0.715-0.97-1.713-1.456-2.992-1.456
			c-1.28,0-2.277,0.485-2.992,1.456c-0.715,0.97-1.072,2.288-1.072,3.951c0,1.686,0.357,3.02,1.072,4
			c0.715,0.982,1.712,1.473,2.992,1.473c1.279,0,2.277-0.49,2.992-1.473C110.363,19.467,110.721,18.133,110.721,16.447z M125,0h1v30
			h-1V0z"/>
	</g>
</g>
</svg>
